{"genre": "classical", "notes": [{"pitch": 85, "duration": 2.0, "velocity": 74, "time": 0}, {"pitch": 87, "duration": 2.0, "velocity": 55, "time": 2.0}, {"pitch": 87, "duration": 0.25, "velocity": 91, "time": 4.0}, {"pitch": 82, "duration": 2.0, "velocity": 85, "time": 4.25}, {"pitch": 85, "duration": 0.25, "velocity": 71, "time": 6.25}, {"pitch": 82, "duration": 1.0, "velocity": 88, "time": 6.5}, {"pitch": 85, "duration": 1.0, "velocity": 60, "time": 7.5}, {"pitch": 87, "duration": 2.0, "velocity": 85, "time": 8.5}, {"pitch": 87, "duration": 1.0, "velocity": 60, "time": 10.5}, {"pitch": 89, "duration": 1.0, "velocity": 63, "time": 11.5}, {"pitch": 87, "duration": 1.0, "velocity": 91, "time": 13.0}, {"pitch": 85, "duration": 2.0, "velocity": 59, "time": 14.0}, {"pitch": 82, "duration": 1.0, "velocity": 68, "time": 16.0}, {"pitch": 85, "duration": 1.0, "velocity": 72, "time": 17.0}, {"pitch": 87, "duration": 1.0, "velocity": 58, "time": 18.0}, {"pitch": 87, "duration": 0.25, "velocity": 84, "time": 19.0}, {"pitch": 82, "duration": 0.5, "velocity": 88, "time": 19.25}, {"pitch": 85, "duration": 0.5, "velocity": 91, "time": 19.75}, {"pitch": 82, "duration": 0.5, "velocity": 88, "time": 20.25}, {"pitch": 87, "duration": 1.0, "velocity": 66, "time": 20.75}, {"pitch": 89, "duration": 0.5, "velocity": 88, "time": 21.75}, {"pitch": 90, "duration": 0.5, "velocity": 73, "time": 22.25}, {"pitch": 94, "duration": 2.0, "velocity": 92, "time": 22.75}, {"pitch": 94, "duration": 1.0, "velocity": 85, "time": 24.75}, {"pitch": 89, "duration": 0.5, "velocity": 87, "time": 25.75}, {"pitch": 89, "duration": 2.0, "velocity": 95, "time": 26.25}, {"pitch": 90, "duration": 0.5, "velocity": 70, "time": 28.25}, {"pitch": 89, "duration": 0.5, "velocity": 64, "time": 28.75}, {"pitch": 92, "duration": 1.0, "velocity": 94, "time": 29.25}, {"pitch": 92, "duration": 1.0, "velocity": 73, "time": 30.25}, {"pitch": 97, "duration": 0.25, "velocity": 81, "time": 31.75}, {"pitch": 97, "duration": 2.0, "velocity": 73, "time": 32.0}, {"pitch": 94, "duration": 0.25, "velocity": 63, "time": 34.0}, {"pitch": 87, "duration": 0.5, "velocity": 77, "time": 34.25}, {"pitch": 89, "duration": 1.0, "velocity": 85, "time": 34.75}, {"pitch": 90, "duration": 0.25, "velocity": 62, "time": 35.75}, {"pitch": 94, "duration": 0.25, "velocity": 59, "time": 36.5}, {"pitch": 92, "duration": 0.5, "velocity": 68, "time": 36.75}, {"pitch": 94, "duration": 0.5, "velocity": 55, "time": 37.25}, {"pitch": 94, "duration": 0.5, "velocity": 82, "time": 37.75}, {"pitch": 94, "duration": 0.25, "velocity": 76, "time": 38.25}, {"pitch": 97, "duration": 0.5, "velocity": 95, "time": 39.0}, {"pitch": 87, "duration": 0.5, "velocity": 77, "time": 39.5}, {"pitch": 89, "duration": 1.0, "velocity": 85, "time": 40.0}, {"pitch": 90, "duration": 0.25, "velocity": 62, "time": 41.0}, {"pitch": 94, "duration": 0.25, "velocity": 59, "time": 41.75}, {"pitch": 92, "duration": 0.5, "velocity": 68, "time": 42.0}, {"pitch": 94, "duration": 0.5, "velocity": 55, "time": 42.5}, {"pitch": 94, "duration": 0.5, "velocity": 82, "time": 43.0}, {"pitch": 94, "duration": 0.25, "velocity": 76, "time": 43.5}, {"pitch": 97, "duration": 0.5, "velocity": 95, "time": 44.25}, {"pitch": 85, "duration": 1.0, "velocity": 92, "time": 44.75}, {"pitch": 87, "duration": 2.0, "velocity": 89, "time": 45.75}, {"pitch": 87, "duration": 0.5, "velocity": 94, "time": 47.75}, {"pitch": 87, "duration": 2.0, "velocity": 73, "time": 48.25}, {"pitch": 87, "duration": 0.5, "velocity": 57, "time": 50.25}, {"pitch": 89, "duration": 1.0, "velocity": 84, "time": 50.75}, {"pitch": 89, "duration": 1.0, "velocity": 63, "time": 51.75}, {"pitch": 90, "duration": 1.0, "velocity": 67, "time": 52.75}, {"pitch": 97, "duration": 0.25, "velocity": 68, "time": 53.75}, {"pitch": 97, "duration": 1.0, "velocity": 77, "time": 54.0}, {"pitch": 94, "duration": 0.5, "velocity": 64, "time": 55.0}, {"pitch": 97, "duration": 1.0, "velocity": 80, "time": 55.5}, {"pitch": 97, "duration": 0.5, "velocity": 76, "time": 56.5}], "accompaniment": [{"pitch": 48, "duration": 4.0, "velocity": 59, "time": 0.0}, {"pitch": 52, "duration": 4.0, "velocity": 48, "time": 0.0}, {"pitch": 55, "duration": 4.0, "velocity": 57, "time": 0.0}, {"pitch": 53, "duration": 4.0, "velocity": 44, "time": 4.0}, {"pitch": 57, "duration": 4.0, "velocity": 46, "time": 4.0}, {"pitch": 60, "duration": 4.0, "velocity": 41, "time": 4.0}, {"pitch": 55, "duration": 4.0, "velocity": 60, "time": 8.0}, {"pitch": 59, "duration": 4.0, "velocity": 47, "time": 8.0}, {"pitch": 62, "duration": 4.0, "velocity": 54, "time": 8.0}, {"pitch": 48, "duration": 4.0, "velocity": 49, "time": 12.0}, {"pitch": 52, "duration": 4.0, "velocity": 46, "time": 12.0}, {"pitch": 55, "duration": 4.0, "velocity": 55, "time": 12.0}, {"pitch": 48, "duration": 4.0, "velocity": 49, "time": 16.0}, {"pitch": 52, "duration": 4.0, "velocity": 48, "time": 16.0}, {"pitch": 55, "duration": 4.0, "velocity": 45, "time": 16.0}, {"pitch": 53, "duration": 4.0, "velocity": 53, "time": 20.0}, {"pitch": 57, "duration": 4.0, "velocity": 41, "time": 20.0}, {"pitch": 60, "duration": 4.0, "velocity": 53, "time": 20.0}, {"pitch": 55, "duration": 4.0, "velocity": 52, "time": 24.0}, {"pitch": 59, "duration": 4.0, "velocity": 58, "time": 24.0}, {"pitch": 62, "duration": 4.0, "velocity": 57, "time": 24.0}, {"pitch": 48, "duration": 4.0, "velocity": 41, "time": 28.0}, {"pitch": 52, "duration": 4.0, "velocity": 42, "time": 28.0}, {"pitch": 55, "duration": 4.0, "velocity": 40, "time": 28.0}, {"pitch": 48, "duration": 4.0, "velocity": 45, "time": 32.0}, {"pitch": 52, "duration": 4.0, "velocity": 41, "time": 32.0}, {"pitch": 55, "duration": 4.0, "velocity": 54, "time": 32.0}, {"pitch": 53, "duration": 4.0, "velocity": 56, "time": 36.0}, {"pitch": 57, "duration": 4.0, "velocity": 44, "time": 36.0}, {"pitch": 60, "duration": 4.0, "velocity": 43, "time": 36.0}, {"pitch": 55, "duration": 4.0, "velocity": 59, "time": 40.0}, {"pitch": 59, "duration": 4.0, "velocity": 53, "time": 40.0}, {"pitch": 62, "duration": 4.0, "velocity": 46, "time": 40.0}, {"pitch": 48, "duration": 4.0, "velocity": 41, "time": 44.0}, {"pitch": 52, "duration": 4.0, "velocity": 49, "time": 44.0}, {"pitch": 55, "duration": 4.0, "velocity": 44, "time": 44.0}, {"pitch": 48, "duration": 4.0, "velocity": 48, "time": 48.0}, {"pitch": 52, "duration": 4.0, "velocity": 45, "time": 48.0}, {"pitch": 55, "duration": 4.0, "velocity": 55, "time": 48.0}, {"pitch": 53, "duration": 4.0, "velocity": 52, "time": 52.0}, {"pitch": 57, "duration": 4.0, "velocity": 60, "time": 52.0}, {"pitch": 60, "duration": 4.0, "velocity": 57, "time": 52.0}, {"pitch": 55, "duration": 4.0, "velocity": 45, "time": 56.0}, {"pitch": 59, "duration": 4.0, "velocity": 50, "time": 56.0}, {"pitch": 62, "duration": 4.0, "velocity": 51, "time": 56.0}], "total_notes": 64, "tempo": 72, "key": "C#", "instrument": "piano", "temperature": 1.0, "midi_file": "classical_quick_4174.mid", "model_type": "Algorithmic", "statistics": {"pitch_range": "82 - 97", "duration_distribution": {"2.0": 10, "0.25": 12, "1.0": 20, "0.5": 22}, "total_duration_beats": 57.0}}
