{"genre": "pop", "notes": [{"pitch": 86, "duration": 0.5, "velocity": 65, "time": 0}, {"pitch": 91, "duration": 1.0, "velocity": 82, "time": 0.5}, {"pitch": 93, "duration": 0.5, "velocity": 82, "time": 1.5}, {"pitch": 96, "duration": 0.5, "velocity": 74, "time": 2.0}, {"pitch": 88, "duration": 0.5, "velocity": 81, "time": 2.5}, {"pitch": 91, "duration": 1.0, "velocity": 83, "time": 3.0}, {"pitch": 93, "duration": 1.0, "velocity": 66, "time": 4.0}, {"pitch": 96, "duration": 1.0, "velocity": 78, "time": 5.0}, {"pitch": 93, "duration": 1.0, "velocity": 78, "time": 6.0}, {"pitch": 96, "duration": 0.5, "velocity": 68, "time": 7.0}, {"pitch": 91, "duration": 0.25, "velocity": 73, "time": 7.5}, {"pitch": 84, "duration": 1.0, "velocity": 63, "time": 7.75}, {"pitch": 84, "duration": 0.25, "velocity": 77, "time": 9.25}, {"pitch": 86, "duration": 1.0, "velocity": 86, "time": 9.5}, {"pitch": 84, "duration": 1.0, "velocity": 90, "time": 10.5}, {"pitch": 86, "duration": 0.5, "velocity": 79, "time": 11.5}, {"pitch": 86, "duration": 1.0, "velocity": 65, "time": 12.0}, {"pitch": 84, "duration": 1.0, "velocity": 88, "time": 13.0}, {"pitch": 86, "duration": 1.0, "velocity": 92, "time": 14.0}, {"pitch": 86, "duration": 1.0, "velocity": 72, "time": 15.0}, {"pitch": 86, "duration": 1.0, "velocity": 63, "time": 16.0}, {"pitch": 88, "duration": 0.5, "velocity": 87, "time": 17.0}, {"pitch": 88, "duration": 0.5, "velocity": 77, "time": 17.5}, {"pitch": 86, "duration": 1.0, "velocity": 74, "time": 18.5}, {"pitch": 91, "duration": 0.25, "velocity": 91, "time": 19.5}, {"pitch": 88, "duration": 1.0, "velocity": 66, "time": 19.75}, {"pitch": 91, "duration": 0.5, "velocity": 88, "time": 20.75}, {"pitch": 88, "duration": 0.5, "velocity": 93, "time": 21.25}, {"pitch": 91, "duration": 1.0, "velocity": 94, "time": 21.75}, {"pitch": 93, "duration": 1.0, "velocity": 80, "time": 22.75}, {"pitch": 93, "duration": 1.0, "velocity": 92, "time": 23.75}, {"pitch": 96, "duration": 0.25, "velocity": 77, "time": 24.75}, {"pitch": 76, "duration": 1.0, "velocity": 73, "time": 25.0}, {"pitch": 84, "duration": 1.0, "velocity": 91, "time": 26.0}, {"pitch": 86, "duration": 1.0, "velocity": 82, "time": 27.0}, {"pitch": 86, "duration": 1.0, "velocity": 93, "time": 28.0}, {"pitch": 84, "duration": 0.25, "velocity": 93, "time": 29.0}, {"pitch": 81, "duration": 0.25, "velocity": 65, "time": 29.25}, {"pitch": 81, "duration": 0.5, "velocity": 78, "time": 30.0}, {"pitch": 86, "duration": 1.0, "velocity": 63, "time": 30.5}, {"pitch": 81, "duration": 1.0, "velocity": 66, "time": 32.0}, {"pitch": 79, "duration": 0.5, "velocity": 91, "time": 33.0}, {"pitch": 81, "duration": 0.25, "velocity": 77, "time": 33.5}, {"pitch": 79, "duration": 1.0, "velocity": 77, "time": 33.75}, {"pitch": 76, "duration": 1.0, "velocity": 86, "time": 35.25}, {"pitch": 74, "duration": 0.25, "velocity": 86, "time": 36.25}, {"pitch": 76, "duration": 0.25, "velocity": 79, "time": 37.0}, {"pitch": 79, "duration": 0.5, "velocity": 92, "time": 37.25}, {"pitch": 76, "duration": 0.5, "velocity": 72, "time": 37.75}, {"pitch": 69, "duration": 0.25, "velocity": 92, "time": 38.25}, {"pitch": 72, "duration": 0.5, "velocity": 69, "time": 38.5}, {"pitch": 76, "duration": 1.0, "velocity": 78, "time": 39.0}, {"pitch": 74, "duration": 0.5, "velocity": 93, "time": 40.0}, {"pitch": 76, "duration": 0.25, "velocity": 91, "time": 40.5}, {"pitch": 86, "duration": 0.5, "velocity": 91, "time": 40.75}, {"pitch": 88, "duration": 0.25, "velocity": 61, "time": 41.25}, {"pitch": 88, "duration": 0.5, "velocity": 94, "time": 41.5}, {"pitch": 91, "duration": 0.5, "velocity": 88, "time": 42.0}, {"pitch": 93, "duration": 0.25, "velocity": 80, "time": 42.5}, {"pitch": 96, "duration": 0.5, "velocity": 73, "time": 42.75}, {"pitch": 98, "duration": 0.25, "velocity": 90, "time": 43.25}, {"pitch": 96, "duration": 0.25, "velocity": 74, "time": 43.5}, {"pitch": 98, "duration": 1.0, "velocity": 61, "time": 43.75}, {"pitch": 105, "duration": 0.5, "velocity": 60, "time": 44.75}], "accompaniment": [{"pitch": 48, "duration": 4.0, "velocity": 55, "time": 0.0}, {"pitch": 52, "duration": 4.0, "velocity": 52, "time": 0.0}, {"pitch": 55, "duration": 4.0, "velocity": 55, "time": 0.0}, {"pitch": 53, "duration": 4.0, "velocity": 57, "time": 4.0}, {"pitch": 57, "duration": 4.0, "velocity": 48, "time": 4.0}, {"pitch": 60, "duration": 4.0, "velocity": 54, "time": 4.0}, {"pitch": 55, "duration": 4.0, "velocity": 52, "time": 8.0}, {"pitch": 59, "duration": 4.0, "velocity": 56, "time": 8.0}, {"pitch": 62, "duration": 4.0, "velocity": 48, "time": 8.0}, {"pitch": 51, "duration": 4.0, "velocity": 45, "time": 12.0}, {"pitch": 55, "duration": 4.0, "velocity": 55, "time": 12.0}, {"pitch": 58, "duration": 4.0, "velocity": 44, "time": 12.0}, {"pitch": 48, "duration": 4.0, "velocity": 57, "time": 16.0}, {"pitch": 52, "duration": 4.0, "velocity": 59, "time": 16.0}, {"pitch": 55, "duration": 4.0, "velocity": 59, "time": 16.0}, {"pitch": 53, "duration": 4.0, "velocity": 51, "time": 20.0}, {"pitch": 57, "duration": 4.0, "velocity": 53, "time": 20.0}, {"pitch": 60, "duration": 4.0, "velocity": 48, "time": 20.0}, {"pitch": 55, "duration": 4.0, "velocity": 59, "time": 24.0}, {"pitch": 59, "duration": 4.0, "velocity": 53, "time": 24.0}, {"pitch": 62, "duration": 4.0, "velocity": 47, "time": 24.0}, {"pitch": 51, "duration": 4.0, "velocity": 52, "time": 28.0}, {"pitch": 55, "duration": 4.0, "velocity": 43, "time": 28.0}, {"pitch": 58, "duration": 4.0, "velocity": 45, "time": 28.0}, {"pitch": 48, "duration": 4.0, "velocity": 46, "time": 32.0}, {"pitch": 52, "duration": 4.0, "velocity": 43, "time": 32.0}, {"pitch": 55, "duration": 4.0, "velocity": 54, "time": 32.0}, {"pitch": 53, "duration": 4.0, "velocity": 50, "time": 36.0}, {"pitch": 57, "duration": 4.0, "velocity": 50, "time": 36.0}, {"pitch": 60, "duration": 4.0, "velocity": 41, "time": 36.0}, {"pitch": 55, "duration": 4.0, "velocity": 49, "time": 40.0}, {"pitch": 59, "duration": 4.0, "velocity": 57, "time": 40.0}, {"pitch": 62, "duration": 4.0, "velocity": 45, "time": 40.0}, {"pitch": 51, "duration": 4.0, "velocity": 58, "time": 44.0}, {"pitch": 55, "duration": 4.0, "velocity": 60, "time": 44.0}, {"pitch": 58, "duration": 4.0, "velocity": 42, "time": 44.0}], "total_notes": 64, "tempo": 120, "key": "C", "instrument": "synth", "temperature": 1.0, "midi_file": "pop_quick_2059.mid", "model_type": "Algorithmic", "statistics": {"pitch_range": "69 - 105", "duration_distribution": {"0.5": 21, "1.0": 28, "0.25": 15}, "total_duration_beats": 45.25}}
