{"genre": "jazz", "notes": [{"pitch": 99, "duration": 0.25, "velocity": 56, "time": 0}, {"pitch": 101, "duration": 0.5, "velocity": 58, "time": 0.25}, {"pitch": 99, "duration": 0.5, "velocity": 95, "time": 0.75}, {"pitch": 106, "duration": 1.5, "velocity": 69, "time": 1.25}, {"pitch": 115, "duration": 1.0, "velocity": 71, "time": 2.75}, {"pitch": 115, "duration": 1.0, "velocity": 67, "time": 3.75}, {"pitch": 115, "duration": 0.25, "velocity": 73, "time": 4.75}, {"pitch": 106, "duration": 0.5, "velocity": 62, "time": 5.0}, {"pitch": 108, "duration": 0.5, "velocity": 99, "time": 5.5}, {"pitch": 110, "duration": 1.0, "velocity": 87, "time": 6.0}, {"pitch": 99, "duration": 1.5, "velocity": 65, "time": 8.0}, {"pitch": 101, "duration": 0.25, "velocity": 50, "time": 9.5}, {"pitch": 99, "duration": 1.0, "velocity": 75, "time": 9.75}, {"pitch": 98, "duration": 1.0, "velocity": 68, "time": 10.75}, {"pitch": 99, "duration": 1.5, "velocity": 92, "time": 11.75}, {"pitch": 101, "duration": 0.5, "velocity": 80, "time": 13.25}, {"pitch": 106, "duration": 0.75, "velocity": 55, "time": 14.25}, {"pitch": 110, "duration": 1.5, "velocity": 84, "time": 15.0}, {"pitch": 108, "duration": 0.25, "velocity": 69, "time": 16.5}, {"pitch": 103, "duration": 1.5, "velocity": 54, "time": 16.75}, {"pitch": 106, "duration": 1.0, "velocity": 97, "time": 18.25}, {"pitch": 96, "duration": 0.5, "velocity": 89, "time": 19.25}, {"pitch": 96, "duration": 1.5, "velocity": 71, "time": 19.75}, {"pitch": 89, "duration": 0.5, "velocity": 53, "time": 21.25}, {"pitch": 91, "duration": 1.5, "velocity": 81, "time": 21.75}, {"pitch": 86, "duration": 1.0, "velocity": 60, "time": 23.25}, {"pitch": 89, "duration": 1.0, "velocity": 64, "time": 24.25}, {"pitch": 98, "duration": 1.5, "velocity": 98, "time": 25.25}, {"pitch": 98, "duration": 0.25, "velocity": 74, "time": 26.75}, {"pitch": 98, "duration": 0.25, "velocity": 97, "time": 27.0}, {"pitch": 106, "duration": 1.5, "velocity": 58, "time": 27.25}, {"pitch": 111, "duration": 0.75, "velocity": 74, "time": 28.75}, {"pitch": 111, "duration": 1.5, "velocity": 65, "time": 29.5}, {"pitch": 113, "duration": 0.25, "velocity": 99, "time": 31.0}, {"pitch": 111, "duration": 1.0, "velocity": 51, "time": 31.25}, {"pitch": 103, "duration": 0.25, "velocity": 89, "time": 32.25}, {"pitch": 96, "duration": 0.25, "velocity": 62, "time": 32.5}, {"pitch": 96, "duration": 0.75, "velocity": 70, "time": 32.75}, {"pitch": 98, "duration": 0.25, "velocity": 74, "time": 33.5}, {"pitch": 98, "duration": 0.25, "velocity": 97, "time": 33.75}, {"pitch": 106, "duration": 1.5, "velocity": 58, "time": 34.0}, {"pitch": 111, "duration": 0.75, "velocity": 74, "time": 35.5}, {"pitch": 111, "duration": 1.5, "velocity": 65, "time": 36.25}, {"pitch": 113, "duration": 0.25, "velocity": 99, "time": 37.75}, {"pitch": 111, "duration": 1.0, "velocity": 51, "time": 38.0}, {"pitch": 103, "duration": 0.25, "velocity": 89, "time": 39.0}, {"pitch": 96, "duration": 0.25, "velocity": 62, "time": 39.25}, {"pitch": 96, "duration": 0.75, "velocity": 70, "time": 39.5}, {"pitch": 96, "duration": 1.0, "velocity": 67, "time": 40.25}, {"pitch": 101, "duration": 1.5, "velocity": 75, "time": 41.25}, {"pitch": 99, "duration": 0.75, "velocity": 67, "time": 42.75}, {"pitch": 101, "duration": 1.5, "velocity": 73, "time": 43.5}, {"pitch": 103, "duration": 1.5, "velocity": 50, "time": 45.0}, {"pitch": 101, "duration": 0.75, "velocity": 60, "time": 46.5}, {"pitch": 103, "duration": 0.25, "velocity": 87, "time": 47.25}, {"pitch": 103, "duration": 1.0, "velocity": 89, "time": 48.5}, {"pitch": 111, "duration": 0.25, "velocity": 57, "time": 49.5}, {"pitch": 110, "duration": 0.75, "velocity": 66, "time": 49.75}, {"pitch": 96, "duration": 1.5, "velocity": 92, "time": 50.5}, {"pitch": 98, "duration": 0.25, "velocity": 95, "time": 52.0}, {"pitch": 101, "duration": 0.25, "velocity": 72, "time": 52.25}, {"pitch": 99, "duration": 1.5, "velocity": 81, "time": 52.5}, {"pitch": 106, "duration": 0.75, "velocity": 58, "time": 54.0}, {"pitch": 106, "duration": 0.5, "velocity": 88, "time": 54.75}], "accompaniment": [{"pitch": 48, "duration": 4.0, "velocity": 57, "time": 0.0}, {"pitch": 52, "duration": 4.0, "velocity": 45, "time": 0.0}, {"pitch": 55, "duration": 4.0, "velocity": 42, "time": 0.0}, {"pitch": 59, "duration": 4.0, "velocity": 40, "time": 0.0}, {"pitch": 50, "duration": 4.0, "velocity": 55, "time": 4.0}, {"pitch": 53, "duration": 4.0, "velocity": 47, "time": 4.0}, {"pitch": 57, "duration": 4.0, "velocity": 45, "time": 4.0}, {"pitch": 60, "duration": 4.0, "velocity": 49, "time": 4.0}, {"pitch": 53, "duration": 4.0, "velocity": 50, "time": 8.0}, {"pitch": 57, "duration": 4.0, "velocity": 50, "time": 8.0}, {"pitch": 60, "duration": 4.0, "velocity": 57, "time": 8.0}, {"pitch": 64, "duration": 4.0, "velocity": 40, "time": 8.0}, {"pitch": 55, "duration": 4.0, "velocity": 57, "time": 12.0}, {"pitch": 59, "duration": 4.0, "velocity": 41, "time": 12.0}, {"pitch": 62, "duration": 4.0, "velocity": 54, "time": 12.0}, {"pitch": 65, "duration": 4.0, "velocity": 52, "time": 12.0}, {"pitch": 48, "duration": 4.0, "velocity": 45, "time": 16.0}, {"pitch": 52, "duration": 4.0, "velocity": 41, "time": 16.0}, {"pitch": 55, "duration": 4.0, "velocity": 52, "time": 16.0}, {"pitch": 59, "duration": 4.0, "velocity": 49, "time": 16.0}, {"pitch": 50, "duration": 4.0, "velocity": 44, "time": 20.0}, {"pitch": 53, "duration": 4.0, "velocity": 54, "time": 20.0}, {"pitch": 57, "duration": 4.0, "velocity": 52, "time": 20.0}, {"pitch": 60, "duration": 4.0, "velocity": 50, "time": 20.0}, {"pitch": 53, "duration": 4.0, "velocity": 41, "time": 24.0}, {"pitch": 57, "duration": 4.0, "velocity": 55, "time": 24.0}, {"pitch": 60, "duration": 4.0, "velocity": 44, "time": 24.0}, {"pitch": 64, "duration": 4.0, "velocity": 49, "time": 24.0}, {"pitch": 55, "duration": 4.0, "velocity": 44, "time": 28.0}, {"pitch": 59, "duration": 4.0, "velocity": 40, "time": 28.0}, {"pitch": 62, "duration": 4.0, "velocity": 55, "time": 28.0}, {"pitch": 65, "duration": 4.0, "velocity": 49, "time": 28.0}, {"pitch": 48, "duration": 4.0, "velocity": 47, "time": 32.0}, {"pitch": 52, "duration": 4.0, "velocity": 48, "time": 32.0}, {"pitch": 55, "duration": 4.0, "velocity": 45, "time": 32.0}, {"pitch": 59, "duration": 4.0, "velocity": 53, "time": 32.0}, {"pitch": 50, "duration": 4.0, "velocity": 43, "time": 36.0}, {"pitch": 53, "duration": 4.0, "velocity": 59, "time": 36.0}, {"pitch": 57, "duration": 4.0, "velocity": 55, "time": 36.0}, {"pitch": 60, "duration": 4.0, "velocity": 60, "time": 36.0}, {"pitch": 53, "duration": 4.0, "velocity": 44, "time": 40.0}, {"pitch": 57, "duration": 4.0, "velocity": 60, "time": 40.0}, {"pitch": 60, "duration": 4.0, "velocity": 58, "time": 40.0}, {"pitch": 64, "duration": 4.0, "velocity": 42, "time": 40.0}, {"pitch": 55, "duration": 4.0, "velocity": 48, "time": 44.0}, {"pitch": 59, "duration": 4.0, "velocity": 49, "time": 44.0}, {"pitch": 62, "duration": 4.0, "velocity": 58, "time": 44.0}, {"pitch": 65, "duration": 4.0, "velocity": 49, "time": 44.0}, {"pitch": 48, "duration": 4.0, "velocity": 50, "time": 48.0}, {"pitch": 52, "duration": 4.0, "velocity": 54, "time": 48.0}, {"pitch": 55, "duration": 4.0, "velocity": 43, "time": 48.0}, {"pitch": 59, "duration": 4.0, "velocity": 41, "time": 48.0}, {"pitch": 50, "duration": 4.0, "velocity": 56, "time": 52.0}, {"pitch": 53, "duration": 4.0, "velocity": 47, "time": 52.0}, {"pitch": 57, "duration": 4.0, "velocity": 60, "time": 52.0}, {"pitch": 60, "duration": 4.0, "velocity": 54, "time": 52.0}], "total_notes": 64, "tempo": 112, "key": "Bb", "instrument": "saxophone", "temperature": 1.0, "midi_file": "jazz_quick_9026.mid", "model_type": "Algorithmic", "statistics": {"pitch_range": "86 - 115", "duration_distribution": {"0.25": 18, "0.5": 8, "1.5": 17, "1.0": 12, "0.75": 9}, "total_duration_beats": 55.25}}
