{"genre": "electronic", "notes": [{"pitch": 83, "duration": 0.5, "velocity": 81, "time": 0}, {"pitch": 84, "duration": 1.0, "velocity": 106, "time": 0.5}, {"pitch": 86, "duration": 0.25, "velocity": 99, "time": 1.5}, {"pitch": 93, "duration": 0.5, "velocity": 94, "time": 2.25}, {"pitch": 83, "duration": 0.25, "velocity": 83, "time": 2.75}, {"pitch": 81, "duration": 0.25, "velocity": 110, "time": 3.0}, {"pitch": 81, "duration": 0.25, "velocity": 91, "time": 3.25}, {"pitch": 83, "duration": 0.125, "velocity": 95, "time": 4.0}, {"pitch": 83, "duration": 0.125, "velocity": 83, "time": 4.125}, {"pitch": 86, "duration": 0.5, "velocity": 87, "time": 4.75}, {"pitch": 93, "duration": 1.0, "velocity": 73, "time": 5.25}, {"pitch": 93, "duration": 0.5, "velocity": 80, "time": 6.25}, {"pitch": 88, "duration": 0.25, "velocity": 80, "time": 6.75}, {"pitch": 86, "duration": 0.25, "velocity": 81, "time": 7.0}, {"pitch": 84, "duration": 0.125, "velocity": 73, "time": 7.25}, {"pitch": 84, "duration": 0.25, "velocity": 100, "time": 7.375}, {"pitch": 71, "duration": 0.5, "velocity": 82, "time": 7.625}, {"pitch": 62, "duration": 0.5, "velocity": 91, "time": 8.125}, {"pitch": 64, "duration": 0.125, "velocity": 70, "time": 8.625}, {"pitch": 59, "duration": 1.0, "velocity": 86, "time": 8.75}, {"pitch": 60, "duration": 0.25, "velocity": 70, "time": 9.75}, {"pitch": 62, "duration": 0.125, "velocity": 97, "time": 10.0}, {"pitch": 71, "duration": 0.5, "velocity": 82, "time": 10.125}, {"pitch": 62, "duration": 0.5, "velocity": 91, "time": 10.625}, {"pitch": 64, "duration": 0.125, "velocity": 70, "time": 11.125}, {"pitch": 59, "duration": 1.0, "velocity": 86, "time": 11.25}, {"pitch": 60, "duration": 0.25, "velocity": 70, "time": 12.25}, {"pitch": 62, "duration": 0.125, "velocity": 97, "time": 12.5}, {"pitch": 79, "duration": 0.5, "velocity": 98, "time": 12.625}, {"pitch": 77, "duration": 0.25, "velocity": 102, "time": 13.125}, {"pitch": 79, "duration": 0.5, "velocity": 106, "time": 13.375}, {"pitch": 69, "duration": 0.25, "velocity": 92, "time": 13.875}, {"pitch": 88, "duration": 0.25, "velocity": 99, "time": 14.625}, {"pitch": 86, "duration": 1.0, "velocity": 95, "time": 14.875}, {"pitch": 84, "duration": 0.5, "velocity": 75, "time": 15.875}, {"pitch": 86, "duration": 0.25, "velocity": 72, "time": 16.375}, {"pitch": 86, "duration": 0.25, "velocity": 107, "time": 16.625}, {"pitch": 89, "duration": 0.125, "velocity": 96, "time": 16.875}, {"pitch": 88, "duration": 0.25, "velocity": 99, "time": 18.0}, {"pitch": 86, "duration": 1.0, "velocity": 95, "time": 18.25}, {"pitch": 84, "duration": 0.5, "velocity": 75, "time": 19.25}, {"pitch": 86, "duration": 0.25, "velocity": 72, "time": 19.75}, {"pitch": 86, "duration": 0.25, "velocity": 107, "time": 20.0}, {"pitch": 89, "duration": 0.125, "velocity": 96, "time": 20.25}, {"pitch": 88, "duration": 0.5, "velocity": 72, "time": 21.875}, {"pitch": 84, "duration": 1.0, "velocity": 74, "time": 22.875}, {"pitch": 83, "duration": 0.25, "velocity": 71, "time": 24.375}, {"pitch": 84, "duration": 0.5, "velocity": 78, "time": 24.625}, {"pitch": 76, "duration": 0.5, "velocity": 80, "time": 25.125}, {"pitch": 83, "duration": 0.25, "velocity": 71, "time": 26.625}, {"pitch": 84, "duration": 0.5, "velocity": 78, "time": 26.875}, {"pitch": 76, "duration": 0.5, "velocity": 80, "time": 27.375}, {"pitch": 91, "duration": 0.125, "velocity": 96, "time": 28.375}, {"pitch": 96, "duration": 0.25, "velocity": 70, "time": 28.5}, {"pitch": 103, "duration": 0.25, "velocity": 81, "time": 28.75}, {"pitch": 101, "duration": 0.125, "velocity": 75, "time": 29.0}, {"pitch": 103, "duration": 1.0, "velocity": 106, "time": 29.125}, {"pitch": 103, "duration": 0.25, "velocity": 93, "time": 30.125}, {"pitch": 84, "duration": 0.5, "velocity": 85, "time": 30.875}, {"pitch": 84, "duration": 1.0, "velocity": 84, "time": 31.375}, {"pitch": 84, "duration": 0.125, "velocity": 107, "time": 32.375}, {"pitch": 84, "duration": 1.0, "velocity": 90, "time": 32.5}, {"pitch": 86, "duration": 0.5, "velocity": 78, "time": 33.5}, {"pitch": 79, "duration": 0.25, "velocity": 95, "time": 34.0}], "accompaniment": [{"pitch": 48, "duration": 4.0, "velocity": 57, "time": 0.0}, {"pitch": 55, "duration": 4.0, "velocity": 60, "time": 0.0}, {"pitch": 51, "duration": 4.0, "velocity": 53, "time": 4.0}, {"pitch": 58, "duration": 4.0, "velocity": 50, "time": 4.0}, {"pitch": 53, "duration": 4.0, "velocity": 60, "time": 8.0}, {"pitch": 60, "duration": 4.0, "velocity": 50, "time": 8.0}, {"pitch": 55, "duration": 4.0, "velocity": 41, "time": 12.0}, {"pitch": 62, "duration": 4.0, "velocity": 41, "time": 12.0}, {"pitch": 48, "duration": 4.0, "velocity": 60, "time": 16.0}, {"pitch": 55, "duration": 4.0, "velocity": 58, "time": 16.0}, {"pitch": 51, "duration": 4.0, "velocity": 49, "time": 20.0}, {"pitch": 58, "duration": 4.0, "velocity": 53, "time": 20.0}, {"pitch": 53, "duration": 4.0, "velocity": 59, "time": 24.0}, {"pitch": 60, "duration": 4.0, "velocity": 57, "time": 24.0}, {"pitch": 55, "duration": 4.0, "velocity": 41, "time": 28.0}, {"pitch": 62, "duration": 4.0, "velocity": 60, "time": 28.0}, {"pitch": 48, "duration": 4.0, "velocity": 58, "time": 32.0}, {"pitch": 55, "duration": 4.0, "velocity": 52, "time": 32.0}], "total_notes": 64, "tempo": 128, "key": "A", "instrument": "synth", "temperature": 1.0, "midi_file": "electronic_quick_6969.mid", "model_type": "Algorithmic", "statistics": {"pitch_range": "59 - 103", "duration_distribution": {"0.5": 19, "1.0": 10, "0.25": 23, "0.125": 12}, "total_duration_beats": 34.25}}
