{"genre": "blues", "notes": [{"pitch": 76, "duration": 1.5, "velocity": 71, "time": 0}, {"pitch": 75, "duration": 0.75, "velocity": 73, "time": 1.5}, {"pitch": 76, "duration": 2.0, "velocity": 74, "time": 2.25}, {"pitch": 76, "duration": 0.75, "velocity": 98, "time": 4.25}, {"pitch": 76, "duration": 1.0, "velocity": 78, "time": 5.0}, {"pitch": 76, "duration": 2.0, "velocity": 76, "time": 6.0}, {"pitch": 76, "duration": 0.75, "velocity": 76, "time": 8.0}, {"pitch": 75, "duration": 1.0, "velocity": 73, "time": 8.75}, {"pitch": 75, "duration": 1.0, "velocity": 96, "time": 9.75}, {"pitch": 76, "duration": 1.5, "velocity": 65, "time": 10.75}, {"pitch": 80, "duration": 2.0, "velocity": 87, "time": 12.25}, {"pitch": 80, "duration": 1.0, "velocity": 87, "time": 14.25}, {"pitch": 76, "duration": 2.0, "velocity": 65, "time": 15.25}, {"pitch": 78, "duration": 1.5, "velocity": 87, "time": 17.25}, {"pitch": 76, "duration": 1.0, "velocity": 97, "time": 18.75}, {"pitch": 78, "duration": 1.0, "velocity": 87, "time": 19.75}, {"pitch": 76, "duration": 0.5, "velocity": 62, "time": 20.75}, {"pitch": 75, "duration": 0.75, "velocity": 83, "time": 21.25}, {"pitch": 73, "duration": 1.0, "velocity": 80, "time": 22.0}, {"pitch": 75, "duration": 0.75, "velocity": 65, "time": 23.0}, {"pitch": 76, "duration": 1.5, "velocity": 63, "time": 24.75}, {"pitch": 80, "duration": 1.0, "velocity": 67, "time": 26.25}, {"pitch": 73, "duration": 1.0, "velocity": 80, "time": 27.25}, {"pitch": 75, "duration": 0.75, "velocity": 65, "time": 28.25}, {"pitch": 76, "duration": 1.5, "velocity": 63, "time": 30.0}, {"pitch": 80, "duration": 1.0, "velocity": 67, "time": 31.5}, {"pitch": 75, "duration": 1.5, "velocity": 75, "time": 32.5}, {"pitch": 68, "duration": 2.0, "velocity": 93, "time": 34.0}, {"pitch": 71, "duration": 2.0, "velocity": 63, "time": 36.0}, {"pitch": 75, "duration": 0.5, "velocity": 99, "time": 38.0}, {"pitch": 76, "duration": 0.5, "velocity": 80, "time": 38.5}, {"pitch": 71, "duration": 0.5, "velocity": 95, "time": 39.0}, {"pitch": 71, "duration": 1.5, "velocity": 94, "time": 39.5}, {"pitch": 76, "duration": 0.5, "velocity": 96, "time": 41.0}, {"pitch": 76, "duration": 1.0, "velocity": 61, "time": 41.5}, {"pitch": 76, "duration": 1.0, "velocity": 66, "time": 42.5}, {"pitch": 76, "duration": 0.5, "velocity": 69, "time": 43.5}, {"pitch": 75, "duration": 1.5, "velocity": 75, "time": 44.0}, {"pitch": 68, "duration": 2.0, "velocity": 93, "time": 45.5}, {"pitch": 71, "duration": 2.0, "velocity": 63, "time": 47.5}, {"pitch": 75, "duration": 0.5, "velocity": 99, "time": 49.5}, {"pitch": 76, "duration": 0.5, "velocity": 80, "time": 50.0}, {"pitch": 71, "duration": 0.5, "velocity": 95, "time": 50.5}, {"pitch": 71, "duration": 1.5, "velocity": 94, "time": 51.0}, {"pitch": 76, "duration": 0.5, "velocity": 96, "time": 52.5}, {"pitch": 76, "duration": 1.0, "velocity": 61, "time": 53.0}, {"pitch": 76, "duration": 1.0, "velocity": 66, "time": 54.0}, {"pitch": 76, "duration": 0.5, "velocity": 69, "time": 55.0}, {"pitch": 83, "duration": 0.5, "velocity": 86, "time": 55.5}, {"pitch": 85, "duration": 2.0, "velocity": 92, "time": 56.0}, {"pitch": 80, "duration": 1.0, "velocity": 86, "time": 58.0}, {"pitch": 78, "duration": 1.0, "velocity": 96, "time": 59.0}, {"pitch": 81, "duration": 2.0, "velocity": 90, "time": 60.0}, {"pitch": 81, "duration": 0.5, "velocity": 71, "time": 62.0}, {"pitch": 81, "duration": 1.5, "velocity": 66, "time": 62.5}, {"pitch": 78, "duration": 2.0, "velocity": 92, "time": 64.0}, {"pitch": 83, "duration": 1.0, "velocity": 88, "time": 66.5}, {"pitch": 80, "duration": 2.0, "velocity": 83, "time": 67.5}, {"pitch": 76, "duration": 1.5, "velocity": 69, "time": 70.5}, {"pitch": 81, "duration": 2.0, "velocity": 79, "time": 72.0}, {"pitch": 88, "duration": 1.0, "velocity": 98, "time": 74.0}, {"pitch": 81, "duration": 2.0, "velocity": 79, "time": 75.0}, {"pitch": 75, "duration": 1.5, "velocity": 88, "time": 77.0}, {"pitch": 75, "duration": 0.5, "velocity": 66, "time": 78.5}], "accompaniment": [{"pitch": 48, "duration": 4.0, "velocity": 51, "time": 0.0}, {"pitch": 52, "duration": 4.0, "velocity": 54, "time": 0.0}, {"pitch": 55, "duration": 4.0, "velocity": 42, "time": 0.0}, {"pitch": 48, "duration": 4.0, "velocity": 45, "time": 4.0}, {"pitch": 52, "duration": 4.0, "velocity": 57, "time": 4.0}, {"pitch": 55, "duration": 4.0, "velocity": 60, "time": 4.0}, {"pitch": 53, "duration": 4.0, "velocity": 51, "time": 8.0}, {"pitch": 57, "duration": 4.0, "velocity": 55, "time": 8.0}, {"pitch": 60, "duration": 4.0, "velocity": 57, "time": 8.0}, {"pitch": 48, "duration": 4.0, "velocity": 51, "time": 12.0}, {"pitch": 52, "duration": 4.0, "velocity": 50, "time": 12.0}, {"pitch": 55, "duration": 4.0, "velocity": 54, "time": 12.0}, {"pitch": 55, "duration": 4.0, "velocity": 58, "time": 16.0}, {"pitch": 59, "duration": 4.0, "velocity": 50, "time": 16.0}, {"pitch": 62, "duration": 4.0, "velocity": 54, "time": 16.0}, {"pitch": 48, "duration": 4.0, "velocity": 47, "time": 20.0}, {"pitch": 52, "duration": 4.0, "velocity": 42, "time": 20.0}, {"pitch": 55, "duration": 4.0, "velocity": 55, "time": 20.0}, {"pitch": 48, "duration": 4.0, "velocity": 41, "time": 24.0}, {"pitch": 52, "duration": 4.0, "velocity": 41, "time": 24.0}, {"pitch": 55, "duration": 4.0, "velocity": 56, "time": 24.0}, {"pitch": 48, "duration": 4.0, "velocity": 52, "time": 28.0}, {"pitch": 52, "duration": 4.0, "velocity": 42, "time": 28.0}, {"pitch": 55, "duration": 4.0, "velocity": 60, "time": 28.0}, {"pitch": 53, "duration": 4.0, "velocity": 60, "time": 32.0}, {"pitch": 57, "duration": 4.0, "velocity": 50, "time": 32.0}, {"pitch": 60, "duration": 4.0, "velocity": 50, "time": 32.0}, {"pitch": 48, "duration": 4.0, "velocity": 46, "time": 36.0}, {"pitch": 52, "duration": 4.0, "velocity": 43, "time": 36.0}, {"pitch": 55, "duration": 4.0, "velocity": 57, "time": 36.0}, {"pitch": 55, "duration": 4.0, "velocity": 55, "time": 40.0}, {"pitch": 59, "duration": 4.0, "velocity": 56, "time": 40.0}, {"pitch": 62, "duration": 4.0, "velocity": 44, "time": 40.0}, {"pitch": 48, "duration": 4.0, "velocity": 53, "time": 44.0}, {"pitch": 52, "duration": 4.0, "velocity": 55, "time": 44.0}, {"pitch": 55, "duration": 4.0, "velocity": 50, "time": 44.0}, {"pitch": 48, "duration": 4.0, "velocity": 41, "time": 48.0}, {"pitch": 52, "duration": 4.0, "velocity": 52, "time": 48.0}, {"pitch": 55, "duration": 4.0, "velocity": 52, "time": 48.0}, {"pitch": 48, "duration": 4.0, "velocity": 46, "time": 52.0}, {"pitch": 52, "duration": 4.0, "velocity": 46, "time": 52.0}, {"pitch": 55, "duration": 4.0, "velocity": 53, "time": 52.0}, {"pitch": 53, "duration": 4.0, "velocity": 43, "time": 56.0}, {"pitch": 57, "duration": 4.0, "velocity": 50, "time": 56.0}, {"pitch": 60, "duration": 4.0, "velocity": 60, "time": 56.0}, {"pitch": 48, "duration": 4.0, "velocity": 51, "time": 60.0}, {"pitch": 52, "duration": 4.0, "velocity": 55, "time": 60.0}, {"pitch": 55, "duration": 4.0, "velocity": 43, "time": 60.0}, {"pitch": 55, "duration": 4.0, "velocity": 56, "time": 64.0}, {"pitch": 59, "duration": 4.0, "velocity": 59, "time": 64.0}, {"pitch": 62, "duration": 4.0, "velocity": 45, "time": 64.0}, {"pitch": 48, "duration": 4.0, "velocity": 48, "time": 68.0}, {"pitch": 52, "duration": 4.0, "velocity": 54, "time": 68.0}, {"pitch": 55, "duration": 4.0, "velocity": 51, "time": 68.0}, {"pitch": 48, "duration": 4.0, "velocity": 60, "time": 72.0}, {"pitch": 52, "duration": 4.0, "velocity": 52, "time": 72.0}, {"pitch": 55, "duration": 4.0, "velocity": 50, "time": 72.0}, {"pitch": 48, "duration": 4.0, "velocity": 46, "time": 76.0}, {"pitch": 52, "duration": 4.0, "velocity": 49, "time": 76.0}, {"pitch": 55, "duration": 4.0, "velocity": 42, "time": 76.0}], "total_notes": 64, "tempo": 72, "key": "E", "instrument": "guitar", "temperature": 1.0, "midi_file": "blues_quick_5999.mid", "model_type": "Algorithmic", "statistics": {"pitch_range": "68 - 88", "duration_distribution": {"1.5": 12, "0.75": 6, "2.0": 14, "1.0": 18, "0.5": 14}, "total_duration_beats": 79.0}}
